<?xml version="1.0" standalone="no"?>
<!DOCTYPE svg PUBLIC "-//W3C//DTD SVG 20010904//EN"
 "http://www.w3.org/TR/2001/REC-SVG-20010904/DTD/svg10.dtd">
<svg version="1.0" xmlns="http://www.w3.org/2000/svg"
 width="16.000000pt" height="16.000000pt" viewBox="0 0 16.000000 16.000000"
 preserveAspectRatio="xMidYMid meet">
<metadata>
Created by potrace 1.11, written by Peter Selinger 2001-2013
</metadata>
<g transform="translate(0.000000,16.000000) scale(0.008000,-0.008000)"
fill="#000000" stroke="none">
<path d="M738 1429 c-137 -19 -201 -91 -202 -224 -1 -115 34 -163 185 -257
143 -90 159 -107 159 -172 0 -50 -28 -76 -83 -76 -55 0 -83 27 -92 93 l-7 47
-91 0 -90 0 5 -63 c9 -106 53 -168 140 -196 45 -15 199 -15 247 -1 102 29 156
107 155 225 0 119 -44 176 -199 265 -114 64 -145 97 -145 150 0 53 27 80 78
80 48 0 72 -24 79 -79 l6 -41 88 0 89 0 0 33 c0 62 -28 133 -65 166 -52 45
-151 65 -257 50z"/>
<path d="M100 1000 l0 -420 90 0 90 0 0 180 0 180 125 0 125 0 0 70 0 70 -125
0 -125 0 0 105 0 105 130 0 130 0 0 65 0 65 -220 0 -220 0 0 -420z"/>
<path d="M1080 1000 l0 -420 90 0 90 0 2 306 3 307 64 -274 c35 -151 68 -289
73 -307 l9 -33 86 3 87 3 62 248 c61 245 61 247 39 247 -15 0 -25 8 -29 23
-10 39 -7 40 29 8 20 -17 40 -31 45 -31 6 0 10 -96 10 -250 l0 -250 90 0 90 0
-1 138 c-1 75 -4 185 -8 243 l-6 105 -75 67 c-41 37 -80 65 -87 63 -8 -3 -13
2 -13 12 0 20 -105 128 -112 115 -3 -4 -29 -106 -59 -225 -29 -120 -56 -218
-59 -218 -3 0 -32 120 -66 268 l-61 267 -146 3 -147 3 0 -421z"/>
</g>
</svg>
